 <svg  version="1.0" xmlns="http://www.w3.org/2000/svg"  width="300.000000pt" height="200.000000pt" viewBox="0 0 300.000000 200.000000"  preserveAspectRatio="xMidYMid meet">  <g transform="translate(0.000000,200.000000) scale(0.050000,-0.050000)" fill="#000000" stroke="none"> <path d="M2930 3106 c-122 -27 -211 -77 -274 -153 -117 -141 -123 -161 -97 -323 17 -110 17 -156 -1 -195 -36 -81 -6 -233 51 -255 32 -12 50 -40 60 -93 8 -42 27 -100 43 -130 15 -30 28 -84 28 -119 0 -51 22 -87 110 -174 117 -117 122 -124 89 -124 -12 0 -61 -27 -109 -60 -48 -33 -97 -60 -109 -60 -11 0 -21 -9 -21 -20 0 -26 32 -25 82 1 24 13 37 13 33 1 -6 -24 108 -201 130 -202 8 0 -11 36 -43 80 -61 84 -65 173 -7 151 21 -8 26 -2 16 23 -10 26 0 23 38 -13 l50 -47 -10 -318 c-6 -174 -24 -409 -41 -521 -16 -113 -35 -261 -42 -330 -11 -117 -41 -161 -75 -107 -6 10 -56 30 -112 44 -55 14 -110 37 -121 50 -14 18 -36 18 -84 3 -35 -12 -75 -24 -89 -27 -47 -12 -27 -68 24 -68 27 0 54 -9 61 -20 7 -12 21 -15 31 -9 11 6 19 2 19 -8 0 -58 61 -83 122 -52 61 32 198 22 198 -13 0 -10 54 -17 120 -15 72 1 114 10 107 22 -15 24 30 54 79 55 28 0 34 -10 24 -40 -11 -35 -4 -40 67 -40 l80 0 -11 111 -12 111 112 -111 c107 -105 154 -134 154 -92 0 10 -58 70 -129 132 -148 131 -150 135 -171 309 -39 313 -140 805 -190 925 -17 41 69 49 157 16 37 -14 52 -12 60 10 8 19 -12 34 -66 49 -42 11 -87 33 -99 48 -13 16 -46 34 -73 41 -48 12 -46 16 69 123 116 106 138 141 153 235 8 55 63 212 91 260 15 26 15 33 -1 24 -24 -15 -29 14 -6 37 8 9 16 21 17 29 1 7 9 29 17 49 9 20 11 70 6 112 -6 42 1 121 15 174 30 116 27 259 -7 341 -22 54 -372 197 -453 185 -11 -1 -38 -7 -60 -12z m182 -112 c8 -7 -3 -19 -24 -27 -21 -8 -45 -24 -53 -36 -8 -12 -15 -3 -15 21 0 61 50 85 92 42z m-152 -35 c0 -23 -9 -36 -20 -29 -11 7 -20 2 -20 -11 0 -18 -8 -18 -30 1 -16 14 -30 34 -30 45 0 10 14 14 30 8 17 -7 30 -3 30 8 0 10 9 19 20 19 11 0 20 -19 20 -41z m355 -164 c23 -30 50 -355 29 -354 -8 0 -31 13 -51 28 -105 80 -599 28 -566 -59 40 -104 216 -120 282 -25 29 41 30 40 88 -22 73 -78 95 -78 188 -2 l75 62 0 -67 c-1 -36 -18 -88 -40 -116 -22 -27 -40 -68 -40 -90 -2 -69 -52 -121 -66 -68 -8 29 -22 39 -43 31 -21 -8 -31 0 -31 24 0 51 -20 65 -61 42 -24 -12 -41 -12 -49 1 -7 11 -30 20 -51 20 -45 0 -50 20 -14 60 21 24 20 24 -9 3 -24 -19 -30 -44 -22 -97 11 -65 9 -70 -31 -57 -33 11 -47 4 -59 -30 -21 -56 -86 -3 -71 58 7 25 -11 60 -51 101 -71 73 -90 258 -33 321 16 18 41 68 55 112 l26 79 110 0 c61 0 124 9 140 20 17 10 75 25 130 32 55 7 110 14 123 15 12 2 31 -8 42 -22z m-180 -778 c93 -49 41 -135 -89 -147 -95 -9 -166 33 -166 100 0 40 10 50 49 50 27 0 54 8 60 19 14 22 82 12 146 -22z m-178 -248 c58 -18 125 -28 148 -22 25 7 34 4 22 -8 -52 -52 -195 -40 -267 23 -38 33 -56 56 -40 51 17 -6 78 -26 137 -44z m99 -1529 c-4 -28 -14 -34 -34 -22 -19 12 -23 35 -13 75 17 66 59 19 47 -53z"/> <path d="M2980 1970 c0 -31 35 -38 88 -18 53 20 36 48 -28 48 -40 0 -60 -10 -60 -30z"/> <path d="M3445 1807 c-72 -30 -24 -53 325 -157 132 -40 266 -85 298 -101 71 -36 72 -36 72 0 0 27 -87 101 -130 111 -11 3 -42 14 -70 25 -27 11 -71 22 -96 23 -26 2 -53 12 -60 23 -8 10 -32 22 -54 26 -22 3 -58 17 -80 31 -42 25 -162 37 -205 19z"/> <path d="M2619 1659 c-15 -9 -71 -12 -123 -7 -62 6 -96 1 -96 -13 0 -12 -9 -16 -20 -9 -11 7 -20 4 -20 -7 0 -11 -16 -17 -35 -14 -19 3 -47 -12 -61 -32 -15 -21 -35 -32 -45 -26 -11 6 -19 1 -19 -11 0 -12 -8 -17 -17 -12 -10 6 -42 -11 -70 -37 -29 -27 -53 -44 -53 -39 0 6 -13 -3 -30 -19 -16 -17 -30 -40 -30 -52 0 -11 -8 -21 -18 -21 -10 0 -14 -18 -8 -40 10 -38 15 -37 92 20 45 33 89 60 98 60 9 0 86 43 171 96 230 144 237 144 284 29 28 -70 41 -77 76 -42 14 14 16 38 5 67 -10 25 -12 51 -6 57 21 22 -47 70 -75 52z"/> <path d="M3610 1520 c34 -38 39 -38 73 -7 50 45 48 47 -36 47 -72 0 -73 -1 -37 -40z"/> <path d="M3690 1483 c-40 -33 -60 -103 -29 -103 9 0 30 19 46 41 34 49 87 -9 131 -144 38 -118 74 -133 90 -38 7 44 30 96 51 116 26 24 36 51 28 81 -14 52 -43 57 -61 10 -12 -30 -15 -29 -30 5 -10 24 -12 2 -5 -56 15 -126 -18 -123 -73 6 -28 64 -53 97 -70 91 -14 -5 -28 -2 -32 8 -3 9 -24 2 -46 -17z"/> <path d="M2455 1460 c-23 -81 -19 -159 7 -115 11 20 18 65 14 100 -6 62 -7 63 -21 15z"/> <path d="M4159 1455 c-8 -37 -15 -598 -7 -590 6 6 13 68 16 138 3 70 8 163 10 207 l3 80 50 -60 c62 -75 80 -139 128 -440 21 -132 45 -271 53 -310 13 -63 12 -67 -18 -43 -36 30 -66 17 -120 -51 -20 -25 -51 -46 -69 -46 -28 0 -27 -4 4 -27 35 -25 35 -27 1 -40 -35 -14 -35 -15 0 -41 34 -24 32 -27 -27 -36 -74 -11 -83 -5 -83 57 0 38 -11 47 -55 46 l-55 0 47 -39 c50 -42 42 -80 -17 -80 -21 0 -44 -10 -52 -23 -9 -16 2 -20 35 -13 27 5 61 -3 75 -19 14 -15 39 -23 56 -16 16 6 47 11 70 11 28 0 37 9 29 30 -7 17 -3 30 8 30 10 0 19 9 19 21 0 11 10 32 21 45 12 13 39 53 60 89 44 74 79 84 79 23 0 -64 -59 -174 -118 -221 l-52 -42 93 13 c99 15 143 -22 95 -81 -18 -21 -14 -27 22 -27 35 0 41 8 29 35 -8 19 -16 121 -18 225 -1 105 -18 258 -36 340 -18 83 -42 218 -53 300 -11 83 -34 195 -50 250 -16 55 -35 123 -41 152 -15 76 -122 199 -132 153z"/> <path d="M2320 1389 c0 -6 14 -38 31 -71 21 -40 27 -83 18 -124 -9 -42 -6 -57 6 -44 28 28 66 150 47 150 -8 0 -27 23 -42 50 -24 45 -60 68 -60 39z"/> <path d="M3380 1391 c0 -20 120 -138 130 -127 14 14 -86 136 -112 136 -10 0 -18 -4 -18 -9z"/> <path d="M3580 1306 c119 -104 224 -209 296 -299 35 -43 41 -46 24 -12 -12 25 -16 45 -10 45 34 0 66 -137 50 -211 -10 -44 -14 -101 -9 -129 8 -44 7 -45 -9 -10 -11 22 -20 30 -21 17 -1 -27 -81 -12 -81 15 0 10 -15 18 -33 18 -24 0 -16 -16 29 -59 64 -61 92 -151 80 -253 -6 -52 -10 -46 -44 52 -44 132 -91 195 -79 107 4 -31 2 -46 -5 -32 -6 14 -29 25 -50 25 -57 0 -46 -39 45 -159 102 -134 144 -232 128 -296 -14 -55 3 -125 30 -125 10 0 13 14 6 30 -6 17 -2 30 9 30 11 0 25 -13 31 -30 7 -16 35 -30 64 -30 28 0 46 8 40 18 -12 19 33 42 83 42 18 0 26 -11 19 -29 -9 -24 2 -27 53 -17 137 26 143 40 23 52 -343 36 -358 55 -259 338 51 146 67 247 26 161 -33 -68 -63 -55 -46 20 8 36 21 97 29 135 15 70 15 70 36 20 l21 -50 23 59 c12 32 19 77 14 100 -8 40 -8 40 -23 -4 -36 -111 -61 -28 -28 95 4 17 -3 28 -18 25 -17 -4 -24 13 -20 50 5 44 -2 55 -36 55 -23 0 -56 12 -75 27 -18 16 -33 24 -33 20 0 -5 -49 38 -110 94 -60 56 -110 113 -110 127 0 14 -11 21 -25 16 -14 -4 -52 4 -85 20 -45 20 -32 3 50 -68z"/> <path d="M2620 1332 c0 -22 144 -94 175 -87 25 5 11 19 -49 51 -80 41 -126 55 -126 36z"/> <path d="M4061 1225 c-28 -99 -28 -167 -1 -125 15 23 19 17 20 -28 0 -109 19 -40 26 94 7 148 -13 174 -45 59z"/> <path d="M1934 1219 c-105 -161 -186 -1219 -93 -1219 9 0 20 20 25 45 8 43 9 43 11 3 2 -32 16 -43 54 -43 40 0 48 7 38 33 -56 136 -113 742 -70 742 7 0 23 -80 37 -179 19 -144 77 -432 116 -576 4 -14 27 -24 52 -24 44 2 44 3 6 19 -22 9 -31 18 -19 19 13 0 0 88 -32 226 -106 447 -145 688 -127 790 l17 95 12 -130 12 -130 6 110 c8 166 37 51 39 -157 2 -181 52 -435 95 -482 51 -56 52 0 2 144 -29 80 -58 172 -65 205 l-13 60 47 -50 c25 -27 47 -54 47 -60 1 -5 14 -50 29 -100 14 -49 28 -103 30 -120 2 -16 10 -68 19 -115 10 -57 7 -85 -7 -85 -12 0 -22 8 -22 18 0 9 -18 22 -40 28 -50 13 -50 11 10 -102 28 -51 50 -114 50 -139 0 -37 11 -45 60 -45 52 0 60 7 60 56 0 31 11 67 25 81 20 20 17 32 -18 59 -45 37 -74 138 -41 149 12 4 11 24 -4 52 -15 26 -19 71 -11 106 l13 60 39 -42 c22 -23 48 -37 58 -30 34 21 20 -96 -15 -121 -29 -22 -25 -29 40 -60 94 -44 122 -32 174 74 55 114 8 168 -78 91 -28 -25 -39 -29 -24 -10 32 42 13 104 -28 88 -16 -6 -68 5 -115 26 -47 21 -71 40 -55 42 17 2 39 6 50 8 11 3 33 6 48 8 16 2 23 9 15 16 -7 7 5 26 27 42 48 33 33 71 -22 56 -21 -6 -54 -15 -73 -21 -64 -17 -101 23 -55 61 36 29 37 31 3 20 -28 -9 -34 -4 -25 20 6 18 12 36 12 41 0 4 10 8 23 8 13 0 54 36 92 80 37 44 81 80 97 80 15 0 28 13 28 29 0 23 24 27 115 20 l115 -8 -70 28 c-147 59 -229 30 -311 -110 -54 -94 -96 -128 -50 -41 16 30 16 42 1 42 -25 0 -99 -152 -100 -205 0 -46 -8 -44 -73 16 -35 33 -59 43 -64 28 -4 -13 4 -31 20 -41 21 -14 20 -17 -8 -18 -28 0 -35 17 -35 85 1 62 6 77 20 55 12 -18 20 -20 20 -6 0 13 -9 29 -20 36 -11 7 -20 32 -21 56 0 24 -16 93 -36 153 l-37 109 -32 -49z"/> <path d="M3468 1065 c16 -30 58 -82 93 -115 l65 -60 -78 114 c-81 119 -130 156 -80 61z"/> <path d="M3747 998 c33 -46 140 -118 177 -118 13 0 -25 36 -84 80 -123 92 -133 96 -93 38z"/> <path d="M4113 757 c-7 -48 -18 -118 -24 -157 -9 -57 -7 -63 11 -34 30 46 57 226 40 255 -8 12 -20 -17 -27 -64z"/> <path d="M3480 561 c22 -44 75 -118 119 -165 44 -47 108 -154 145 -240 61 -144 116 -202 116 -123 0 138 -286 638 -316 550 -6 -18 -17 -13 -37 16 -50 71 -70 45 -27 -38z"/> <path d="M3366 545 c5 -8 29 -60 54 -115 25 -55 63 -126 85 -157 34 -47 36 -60 13 -75 -20 -12 -13 -17 26 -18 32 0 83 -25 123 -60 82 -72 118 -80 54 -11 -28 29 -39 58 -30 75 9 14 8 19 -1 11 -10 -9 -38 4 -64 28 -26 25 -46 33 -46 19 0 -13 -9 -19 -20 -12 -11 7 -20 33 -20 59 0 50 -134 271 -164 271 -10 0 -14 -7 -10 -15z"/> <path d="M2662 419 c-23 -32 -42 -75 -42 -97 0 -21 -11 -44 -25 -50 -14 -6 7 -6 45 0 39 6 94 28 124 50 30 21 69 38 87 38 55 0 22 40 -64 79 l-82 37 -43 -57z"/> <path d="M4038 435 c-2 -30 -5 -65 -6 -78 -1 -13 9 -27 23 -32 29 -10 32 63 5 125 -15 36 -18 34 -22 -15z"/> <path d="M3597 85 c36 -47 75 -85 85 -85 37 0 15 32 -67 100 l-85 70 67 -85z"/> </g> </svg> 